<?xml version="1.0" encoding="utf-8"?>
<svg version="1.1" xmlns="http://www.w3.org/2000/svg" xmlns:xlink="http://www.w3.org/1999/xlink" x="0px" y="0px" viewBox="0 0 256 256" enable-background="new 0 0 256 256" xml:space="preserve">
<g><g><g><path fill="#000000" d="M77.1,38.6C49.7,54.3,26.8,67.7,26.3,68.4l-1.1,1.2v58c0,41.4,0.1,58.4,0.5,59.1c0.4,0.8,14,8.9,50.9,30.2c27.7,16,50.8,29.1,51.4,29.1s23.6-13.1,51.4-29.1c36.9-21.3,50.5-29.4,50.9-30.2c0.4-0.8,0.5-17.7,0.5-59.1v-58l-1-1.2C228.3,66.7,129.2,10,127.9,10C127.3,10,104.4,22.9,77.1,38.6z M156.1,50.9l27.7,31.3l-27.9,0.1c-15.3,0-40.4,0-55.8,0l-27.9-0.1l27.7-31.3c15.2-17.1,27.8-31.2,28.1-31.2C128.2,19.7,140.8,33.7,156.1,50.9z M86.3,55.2C73.4,69.6,62.8,81.4,62.6,81.4c-0.2-0.1-6-2.6-12.9-5.7c-8.1-3.6-12.3-5.7-11.9-5.9c2.7-1.7,71.6-41.2,71.7-41.1C109.6,28.8,99.1,40.7,86.3,55.2z M217.5,69.4l1.2,0.8L206,75.8c-7,3.1-12.9,5.5-13,5.4c-0.5-0.3-46.5-52.2-46.5-52.4C146.4,28.6,214.2,67.3,217.5,69.4z M46.1,82.1c9.8,4.3,13,5.9,12.9,6.5c-0.1,0.8-25,71.4-25.9,73.5c-0.3,0.8-0.5-12.3-0.5-42.3c0-23.9,0-43.4,0.2-43.4C33,76.4,38.9,79,46.1,82.1z M223.4,119.8c0,23.9-0.1,43.3-0.2,43.2c-0.3-0.2-26-73.3-26.2-74.4c-0.1-0.6,2.7-2,12.8-6.5c7.1-3.1,13-5.7,13.3-5.8C223.3,76.4,223.4,95.9,223.4,119.8z M184.1,92.5c-23.1,40.9-56,98.6-56.1,98.7c-0.2,0-48.4-84.8-55.9-98.3l-1.8-3.1H128h57.7L184.1,92.5z M92.9,144.4c15.3,27,27.7,49.2,27.6,49.4c-0.3,0.3-85.6-11.4-86.1-11.8c-0.3-0.3,30-86.7,30.4-86.7C64.9,95.3,77.6,117.4,92.9,144.4z M206.5,138c8.3,23.6,15.1,43.1,15.2,43.4c0.1,0.6-14.6,2.9-78.8,11.7l-8,1.1l1.8-3c10.8-19.5,54.3-95.8,54.5-95.9C191.3,95.3,198.2,114.5,206.5,138z M86.4,196.9c20.6,2.9,37.6,5.3,37.7,5.4c0.1,0.1,0.2,7.7,0.1,16.9l-0.1,16.6L87,214.3c-20.4-11.8-37.6-21.7-38.3-22c-0.6-0.4-0.9-0.6-0.5-0.6C48.6,191.7,65.8,194,86.4,196.9z M189.5,202.5c-10.4,6-27.6,15.9-38.3,22.1l-19.4,11.2l-0.1-16.6c0-9.2,0-16.7,0.1-16.9c0.2-0.2,73.3-10.6,75.4-10.6C207.9,191.6,200.5,196.2,189.5,202.5z"/></g></g></g>
</svg>